<?xml version="1.0" encoding="UTF-8" standalone="no"?>
<!-- Created with Inkscape (http://www.inkscape.org/) -->

<svg
   xmlns:dc="http://purl.org/dc/elements/1.1/"
   xmlns:cc="http://creativecommons.org/ns#"
   xmlns:rdf="http://www.w3.org/1999/02/22-rdf-syntax-ns#"
   xmlns:svg="http://www.w3.org/2000/svg"
   xmlns="http://www.w3.org/2000/svg"
   xmlns:sodipodi="http://sodipodi.sourceforge.net/DTD/sodipodi-0.dtd"
   xmlns:inkscape="http://www.inkscape.org/namespaces/inkscape"
   width="35"
   height="35"
   viewBox="0 0 9.2604147 9.2604164"
   version="1.1"
   id="svg334"
   sodipodi:docname="cancel.svg"
   inkscape:version="0.92.4 5da689c313, 2019-01-14">
  <defs
     id="defs328" />
  <sodipodi:namedview
     id="base"
     pagecolor="#ffffff"
     bordercolor="#666666"
     borderopacity="1.0"
     inkscape:pageopacity="0.0"
     inkscape:pageshadow="2"
     inkscape:zoom="5.6"
     inkscape:cx="30.989314"
     inkscape:cy="30.301246"
     inkscape:document-units="mm"
     inkscape:current-layer="layer1"
     showgrid="false"
     inkscape:window-width="1366"
     inkscape:window-height="712"
     inkscape:window-x="0"
     inkscape:window-y="28"
     inkscape:window-maximized="1"
     fit-margin-top="0"
     fit-margin-left="0"
     fit-margin-right="0"
     fit-margin-bottom="0"
     units="px" />
  <metadata
     id="metadata331">
    <rdf:RDF>
      <cc:Work
         rdf:about="">
        <dc:format>image/svg+xml</dc:format>
        <dc:type
           rdf:resource="http://purl.org/dc/dcmitype/StillImage" />
        <dc:title></dc:title>
      </cc:Work>
    </rdf:RDF>
  </metadata>
  <g
     inkscape:label="Layer 1"
     inkscape:groupmode="layer"
     id="layer1"
     transform="translate(-57.921111,-14.423636)">
    <g
       transform="matrix(0.01409395,0,0,0.01409395,59.741327,16.480088)"
       id="g1171"
       style="fill:#ffffff">
      <path
         inkscape:connector-curvature="0"
         style="fill:#ffffff"
         d="m 74.134,64.147 c -4.985,0.078 -9.911,2.163 -13.438,5.688 l -55,55 C 2.096,128.432 0,133.492 0,138.583 c 0,5.091 2.096,10.151 5.697,13.75 l 183.281,183.281 c 3.599,3.601 8.659,5.697 13.75,5.697 5.091,0 10.151,-2.096 13.75,-5.697 L 399.759,152.333 c 3.601,-3.599 5.697,-8.659 5.697,-13.75 0,-5.091 -2.096,-10.151 -5.697,-13.75 l -55,-55 c -3.598,-3.591 -8.651,-5.681 -13.734,-5.681 -5.083,0 -10.136,2.09 -13.734,5.681 L 202.728,184.397 88.166,69.833 C 84.499,66.169 79.318,64.07 74.134,64.147 Z"
         id="path1169" />
    </g>
    <g
       transform="matrix(0.01409395,0,0,0.01409395,59.741327,16.574582)"
       id="g1173" />
    <g
       transform="matrix(0.01409395,0,0,0.01409395,59.741327,16.574582)"
       id="g1175" />
    <g
       transform="matrix(0.01409395,0,0,0.01409395,59.741327,16.574582)"
       id="g1177" />
    <g
       transform="matrix(0.01409395,0,0,0.01409395,59.741327,16.574582)"
       id="g1179" />
    <g
       transform="matrix(0.01409395,0,0,0.01409395,59.741327,16.574582)"
       id="g1181" />
    <g
       transform="matrix(0.01409395,0,0,0.01409395,59.741327,16.574582)"
       id="g1183" />
    <g
       transform="matrix(0.01409395,0,0,0.01409395,59.741327,16.574582)"
       id="g1185" />
    <g
       transform="matrix(0.01409395,0,0,0.01409395,59.741327,16.574582)"
       id="g1187" />
    <g
       transform="matrix(0.01409395,0,0,0.01409395,59.741327,16.574582)"
       id="g1189" />
    <g
       transform="matrix(0.01409395,0,0,0.01409395,59.741327,16.574582)"
       id="g1191" />
    <g
       transform="matrix(0.01409395,0,0,0.01409395,59.741327,16.574582)"
       id="g1193" />
    <g
       transform="matrix(0.01409395,0,0,0.01409395,59.741327,16.574582)"
       id="g1195" />
    <g
       transform="matrix(0.01409395,0,0,0.01409395,59.741327,16.574582)"
       id="g1197" />
    <g
       transform="matrix(0.01409395,0,0,0.01409395,59.741327,16.574582)"
       id="g1199" />
    <g
       transform="matrix(0.01409395,0,0,0.01409395,59.741327,16.574582)"
       id="g1201" />
  </g>
</svg>
