<?xml version="1.0" encoding="UTF-8" standalone="no"?>
<!-- Created with Inkscape (http://www.inkscape.org/) -->

<svg
   xmlns:dc="http://purl.org/dc/elements/1.1/"
   xmlns:cc="http://creativecommons.org/ns#"
   xmlns:rdf="http://www.w3.org/1999/02/22-rdf-syntax-ns#"
   xmlns:svg="http://www.w3.org/2000/svg"
   xmlns="http://www.w3.org/2000/svg"
   xmlns:sodipodi="http://sodipodi.sourceforge.net/DTD/sodipodi-0.dtd"
   xmlns:inkscape="http://www.inkscape.org/namespaces/inkscape"
   width="35"
   height="35"
   viewBox="0 0 9.2604147 9.2604164"
   version="1.1"
   id="svg334"
   sodipodi:docname="google-plus.svg"
   inkscape:version="0.92.4 5da689c313, 2019-01-14">
  <defs
     id="defs328" />
  <sodipodi:namedview
     id="base"
     pagecolor="#ffffff"
     bordercolor="#666666"
     borderopacity="1.0"
     inkscape:pageopacity="0.0"
     inkscape:pageshadow="2"
     inkscape:zoom="3.959798"
     inkscape:cx="29.70299"
     inkscape:cy="37.966543"
     inkscape:document-units="mm"
     inkscape:current-layer="layer1"
     showgrid="false"
     inkscape:window-width="1366"
     inkscape:window-height="712"
     inkscape:window-x="0"
     inkscape:window-y="28"
     inkscape:window-maximized="1"
     fit-margin-top="0"
     fit-margin-left="0"
     fit-margin-right="0"
     fit-margin-bottom="0"
     units="px" />
  <metadata
     id="metadata331">
    <rdf:RDF>
      <cc:Work
         rdf:about="">
        <dc:format>image/svg+xml</dc:format>
        <dc:type
           rdf:resource="http://purl.org/dc/dcmitype/StillImage" />
        <dc:title></dc:title>
      </cc:Work>
    </rdf:RDF>
  </metadata>
  <g
     inkscape:label="Layer 1"
     inkscape:groupmode="layer"
     id="layer1"
     transform="translate(-57.921111,-14.423636)">
    <path
       inkscape:connector-curvature="0"
       id="path90"
       style="fill:#ffffff;fill-opacity:1;fill-rule:evenodd;stroke:none;stroke-width:0.01452655"
       d="m 65.727519,18.686897 c -0.04765,0 -0.103284,0 -0.159211,0 0,-0.0122 0,-0.02804 0,-0.0321 0,-0.04372 0,-0.07946 0,-0.111419 0,-0.203226 0.0041,-0.406307 0,-0.613456 0,-0.03181 -0.0398,-0.09152 -0.05593,-0.09152 -0.182889,-0.008 -0.370282,-0.008 -0.565228,-0.008 0,0.246951 0,0.478069 0,0.712963 0,0.04387 0,0.09166 0,0.135242 -0.290967,0 -0.561597,0 -0.856631,0 0,0.06784 0,0.111854 0,0.155579 0.0081,0.151367 0.0122,0.306656 0.02397,0.457877 0.147444,0.0081 0.294889,0.01598 0.449887,0.01598 0.123912,0.0041 0.251019,0 0.386406,0 0,0.294744 0,0.565664 0,0.836439 0.211362,-0.0041 0.406308,0 0.617524,0 0,-0.27891 0,-0.549684 0,-0.836439 0.286754,0 0.557529,0 0.836294,0 0,-0.163278 0,-0.314645 0,-0.473856 0,-0.05186 0,-0.09965 0,-0.147299 -0.222838,0 -0.449887,0 -0.677083,0 z m -2.409664,-0.07583 c -0.529638,0.008 -1.059422,0.008 -1.58906,0.008 -0.151221,0 -0.306655,-0.008 -0.454245,0 -0.03167,0 -0.07946,0.03573 -0.07946,0.05564 -0.0041,0.306946 -0.0041,0.613456 -0.0041,0.932169 0.434199,0 0.860263,0 1.294461,0 -0.01191,0.06363 -0.02383,0.111418 -0.04373,0.155289 -0.195382,0.589487 -0.804771,0.880308 -1.461952,0.772812 -0.81247,-0.135533 -1.314217,-0.884376 -1.166918,-1.696846 0.01598,-0.115487 0.05578,-0.22705 0.09558,-0.330625 0.270775,-0.589487 0.935945,-0.948002 1.593272,-0.800558 0.234895,0.05186 0.438266,0.159356 0.609098,0.314645 0.239107,-0.238962 0.466158,-0.466012 0.713109,-0.712818 -0.01598,-0.01206 -0.04373,-0.03196 -0.0597,-0.05186 -0.573508,-0.481991 -1.230835,-0.661248 -1.967622,-0.537773 -1.063634,0.171269 -1.828021,1.007708 -1.9913,1.983456 -0.07568,0.414297 -0.04387,0.856486 0.119554,1.286472 0.406308,1.031821 1.445537,1.664888 2.560885,1.541558 0.545618,-0.05985 1.031676,-0.254941 1.406025,-0.657327 0.561307,-0.597332 0.708606,-1.314217 0.617234,-2.106931 -0.01598,-0.13132 -0.06755,-0.155289 -0.19117,-0.155289 v 0" />
  </g>
</svg>
