<?xml version="1.0" encoding="UTF-8" standalone="no"?>
<!-- Created with Inkscape (http://www.inkscape.org/) -->

<svg
   xmlns:dc="http://purl.org/dc/elements/1.1/"
   xmlns:cc="http://creativecommons.org/ns#"
   xmlns:rdf="http://www.w3.org/1999/02/22-rdf-syntax-ns#"
   xmlns:svg="http://www.w3.org/2000/svg"
   xmlns="http://www.w3.org/2000/svg"
   xmlns:sodipodi="http://sodipodi.sourceforge.net/DTD/sodipodi-0.dtd"
   xmlns:inkscape="http://www.inkscape.org/namespaces/inkscape"
   width="35"
   height="35"
   viewBox="0 0 9.2604147 9.2604164"
   version="1.1"
   id="svg334"
   sodipodi:docname="reddit.svg"
   inkscape:version="0.92.4 5da689c313, 2019-01-14">
  <defs
     id="defs328" />
  <sodipodi:namedview
     id="base"
     pagecolor="#ffffff"
     bordercolor="#666666"
     borderopacity="1.0"
     inkscape:pageopacity="0.0"
     inkscape:pageshadow="2"
     inkscape:zoom="3.959798"
     inkscape:cx="29.70299"
     inkscape:cy="37.966543"
     inkscape:document-units="mm"
     inkscape:current-layer="layer1"
     showgrid="false"
     inkscape:window-width="1366"
     inkscape:window-height="712"
     inkscape:window-x="0"
     inkscape:window-y="28"
     inkscape:window-maximized="1"
     fit-margin-top="0"
     fit-margin-left="0"
     fit-margin-right="0"
     fit-margin-bottom="0"
     units="px" />
  <metadata
     id="metadata331">
    <rdf:RDF>
      <cc:Work
         rdf:about="">
        <dc:format>image/svg+xml</dc:format>
        <dc:type
           rdf:resource="http://purl.org/dc/dcmitype/StillImage" />
        <dc:title></dc:title>
      </cc:Work>
    </rdf:RDF>
  </metadata>
  <g
     inkscape:label="Layer 1"
     inkscape:groupmode="layer"
     id="layer1"
     transform="translate(-57.921111,-14.423636)">
    <path
       style="fill:#ffffff;fill-opacity:1;stroke:none;stroke-width:0.06219466;stroke-opacity:1"
       d="m 65.119915,15.902529 c -0.290492,0 -0.537914,0.181657 -0.63789,0.436907 l -1.366632,-0.321697 c -0.05953,-0.01431 -0.120484,0.02033 -0.13914,0.07921 l -0.522045,1.651268 c -0.896738,0.01084 -1.709069,0.253487 -2.306099,0.642759 -0.154408,-0.142371 -0.355606,-0.226395 -0.566942,-0.226395 -0.462464,0 -0.838658,0.376081 -0.838658,0.838871 0,0.2996 0.160918,0.573078 0.415517,0.72239 -0.01605,0.08848 -0.02669,0.178081 -0.02669,0.269599 0,1.24036 1.51805,2.249341 3.384284,2.249341 1.866341,0 3.384494,-1.008981 3.384494,-2.249341 0,-0.08621 -0.0091,-0.170646 -0.02329,-0.254139 0.271623,-0.144866 0.443357,-0.424046 0.443683,-0.73785 0,-0.462682 -0.376508,-0.839082 -0.839081,-0.839082 -0.219359,0 -0.422462,0.08829 -0.577954,0.238467 -0.571983,-0.378646 -1.346536,-0.61991 -2.204022,-0.650596 l 0.468252,-1.480994 1.267941,0.298613 c -2.17e-4,0.0064 -0.0017,0.01205 -0.0017,0.01843 0,0.378214 0.307534,0.686175 0.685964,0.686175 0.378104,0 0.685962,-0.307961 0.685962,-0.686175 0,-0.378213 -0.307858,-0.685751 -0.685962,-0.685751 z m 0,0.234655 c 0.248635,0 0.450884,0.202244 0.450884,0.451096 0,0.248853 -0.202249,0.451308 -0.450884,0.451309 -0.248853,0 -0.451521,-0.202456 -0.451521,-0.451309 0,-0.248852 0.202668,-0.451096 0.451521,-0.451096 z m -5.538959,2.262049 c 0.135758,0 0.266163,0.04782 0.372102,0.130883 -0.350997,0.270649 -0.605721,0.597064 -0.731286,0.95641 -0.151263,-0.112011 -0.244397,-0.290066 -0.244397,-0.483076 0,-0.333106 0.270692,-0.604215 0.603581,-0.604215 z m 5.900259,0 c 0.333321,0 0.604004,0.271109 0.604004,0.604215 0,0.205696 -0.102951,0.390372 -0.268965,0.500865 -0.121555,-0.361297 -0.373349,-0.689947 -0.722177,-0.962763 0.107996,-0.09044 0.24314,-0.142317 0.387138,-0.142317 z M 61.381319,19.0799 c 0.27531,0 0.49917,0.224074 0.49917,0.499384 0,0.27531 -0.223752,0.499172 -0.49917,0.499172 -0.275419,0 -0.499384,-0.223862 -0.499384,-0.499172 0,-0.27531 0.224072,-0.499384 0.499384,-0.499384 z m 2.301862,0 c 0.275312,0 0.499172,0.224074 0.499171,0.499384 0,0.27531 -0.223859,0.499172 -0.499171,0.499172 -0.275093,0 -0.49917,-0.223645 -0.49917,-0.499172 0,-0.275527 0.22386,-0.499384 0.49917,-0.499384 z m -2.280473,1.779397 c 0.03006,0 0.06024,0.01138 0.08324,0.0343 0.205263,0.20548 0.545694,0.305178 1.041122,0.305178 0.0015,0 0.0027,8.61e-4 0.0043,8.61e-4 0.0015,0 0.0027,-8.61e-4 0.004,-8.61e-4 0.495537,0 0.836073,-0.09981 1.041336,-0.305178 0.04597,-0.04576 0.12027,-0.04576 0.166248,0 0.04576,0.04597 0.04576,0.12039 -2.17e-4,0.166038 -0.251563,0.25178 -0.646558,0.374007 -1.207372,0.374007 -0.0013,0 -0.0025,-0.0011 -0.004,-0.0011 -0.0015,0 -0.0027,0.0011 -0.0043,0.0011 -0.560814,0 -0.955701,-0.122223 -1.207372,-0.374007 -0.04576,-0.04576 -0.04576,-0.120056 0,-0.166038 0.02299,-0.02287 0.05296,-0.0343 0.08302,-0.0343 z"
       id="rect1020"
       inkscape:connector-curvature="0" />
  </g>
</svg>
