<?xml version="1.0" encoding="UTF-8" standalone="no"?>
<!-- Created with Inkscape (http://www.inkscape.org/) -->

<svg
   xmlns:dc="http://purl.org/dc/elements/1.1/"
   xmlns:cc="http://creativecommons.org/ns#"
   xmlns:rdf="http://www.w3.org/1999/02/22-rdf-syntax-ns#"
   xmlns:svg="http://www.w3.org/2000/svg"
   xmlns="http://www.w3.org/2000/svg"
   xmlns:sodipodi="http://sodipodi.sourceforge.net/DTD/sodipodi-0.dtd"
   xmlns:inkscape="http://www.inkscape.org/namespaces/inkscape"
   width="35"
   height="35"
   viewBox="0 0 9.2604147 9.2604164"
   version="1.1"
   id="svg334"
   sodipodi:docname="share.svg"
   inkscape:version="0.92.4 5da689c313, 2019-01-14">
  <defs
     id="defs328" />
  <sodipodi:namedview
     id="base"
     pagecolor="#ffffff"
     bordercolor="#666666"
     borderopacity="1.0"
     inkscape:pageopacity="0.0"
     inkscape:pageshadow="2"
     inkscape:zoom="7.9195959"
     inkscape:cx="33.557144"
     inkscape:cy="9.3255172"
     inkscape:document-units="mm"
     inkscape:current-layer="layer1"
     showgrid="false"
     inkscape:window-width="1366"
     inkscape:window-height="712"
     inkscape:window-x="0"
     inkscape:window-y="28"
     inkscape:window-maximized="1"
     fit-margin-top="0"
     fit-margin-left="0"
     fit-margin-right="0"
     fit-margin-bottom="0"
     units="px" />
  <metadata
     id="metadata331">
    <rdf:RDF>
      <cc:Work
         rdf:about="">
        <dc:format>image/svg+xml</dc:format>
        <dc:type
           rdf:resource="http://purl.org/dc/dcmitype/StillImage" />
        <dc:title></dc:title>
      </cc:Work>
    </rdf:RDF>
  </metadata>
  <g
     inkscape:label="Layer 1"
     inkscape:groupmode="layer"
     id="layer1"
     transform="translate(-57.921111,-14.423636)">
    <g
       transform="matrix(0.01409395,0,0,0.01409395,59.741327,16.574582)"
       id="g1173" />
    <g
       transform="matrix(0.01409395,0,0,0.01409395,59.741327,16.574582)"
       id="g1175" />
    <g
       transform="matrix(0.01409395,0,0,0.01409395,59.741327,16.574582)"
       id="g1177" />
    <g
       transform="matrix(0.01409395,0,0,0.01409395,59.741327,16.574582)"
       id="g1179" />
    <g
       transform="matrix(0.01409395,0,0,0.01409395,59.741327,16.574582)"
       id="g1181" />
    <g
       transform="matrix(0.01409395,0,0,0.01409395,59.741327,16.574582)"
       id="g1183" />
    <g
       transform="matrix(0.01409395,0,0,0.01409395,59.741327,16.574582)"
       id="g1185" />
    <g
       transform="matrix(0.01409395,0,0,0.01409395,59.741327,16.574582)"
       id="g1187" />
    <g
       transform="matrix(0.01409395,0,0,0.01409395,59.741327,16.574582)"
       id="g1189" />
    <g
       transform="matrix(0.01409395,0,0,0.01409395,59.741327,16.574582)"
       id="g1191" />
    <g
       transform="matrix(0.01409395,0,0,0.01409395,59.741327,16.574582)"
       id="g1193" />
    <g
       transform="matrix(0.01409395,0,0,0.01409395,59.741327,16.574582)"
       id="g1195" />
    <g
       transform="matrix(0.01409395,0,0,0.01409395,59.741327,16.574582)"
       id="g1197" />
    <g
       transform="matrix(0.01409395,0,0,0.01409395,59.741327,16.574582)"
       id="g1199" />
    <g
       transform="matrix(0.01409395,0,0,0.01409395,59.741327,16.574582)"
       id="g1201" />
    <path
       inkscape:connector-curvature="0"
       id="path1537"
       style="fill:#ffffff;fill-opacity:1;fill-rule:nonzero;stroke:none;stroke-width:0.00099914"
       d="m 63.725361,21.008934 c 0.382519,0 0.693142,0.310382 0.693142,0.693242 0,0.383099 -0.310623,0.693483 -0.693142,0.693483 -0.383081,0 -0.693573,-0.310384 -0.693573,-0.693483 0,-0.38286 0.310492,-0.693242 0.693573,-0.693242 z m -3.636946,-1.066902 c -0.38313,0 -0.693513,-0.310421 -0.693513,-0.693461 0,-0.382821 0.310383,-0.693264 0.693513,-0.693264 0.382769,0 0.693093,0.310443 0.693093,0.693264 0,0.38304 -0.310324,0.693461 -0.693093,0.693461 z m 3.636946,-4.192645 c 0.382519,0 0.693142,0.310411 0.693142,0.693201 0,0.38307 -0.310623,0.693522 -0.693142,0.693522 -0.383081,0 -0.693573,-0.310452 -0.693573,-0.693522 0,-0.38279 0.310492,-0.693201 0.693573,-0.693201 z m -0.63903,1.738871 c 0.192284,0.124282 0.420858,0.19711 0.666235,0.19711 0.679235,0 1.232049,-0.552104 1.232049,-1.23062 0,-0.678486 -0.552814,-1.230349 -1.232049,-1.230349 -0.679304,0 -1.231867,0.551863 -1.231867,1.230349 0,0.114095 0.01676,0.224037 0.04614,0.329136 l -0.73009,0.517963 -1.156464,0.820354 c -0.172512,-0.09174 -0.368612,-0.144226 -0.577712,-0.144226 -0.679185,0 -1.231868,0.551934 -1.231868,1.230359 0,0.678486 0.552683,1.230321 1.231868,1.230321 0.292968,0 0.562226,-0.102773 0.773694,-0.274074 l 0.960482,0.681263 0.73009,0.517974 c -0.02938,0.1048 -0.04614,0.214675 -0.04614,0.328826 0,0.678496 0.552563,1.230599 1.231867,1.230599 0.679235,0 1.232049,-0.552103 1.232049,-1.230599 0,-0.678205 -0.552814,-1.230379 -1.232049,-1.230379 -0.245687,0 -0.47467,0.07315 -0.666965,0.19731 l -1.045198,-0.741621 -0.722897,-0.512858 c 0.01026,-0.06425 0.01717,-0.129559 0.01717,-0.196762 0,-0.148721 -0.02804,-0.290948 -0.07655,-0.423075 l 0.782275,-0.555091 1.04593,-0.74191" />
  </g>
</svg>
