<?xml version="1.0" encoding="UTF-8" standalone="no"?>
<!-- Created with Inkscape (http://www.inkscape.org/) -->

<svg
   xmlns:dc="http://purl.org/dc/elements/1.1/"
   xmlns:cc="http://creativecommons.org/ns#"
   xmlns:rdf="http://www.w3.org/1999/02/22-rdf-syntax-ns#"
   xmlns:svg="http://www.w3.org/2000/svg"
   xmlns="http://www.w3.org/2000/svg"
   xmlns:sodipodi="http://sodipodi.sourceforge.net/DTD/sodipodi-0.dtd"
   xmlns:inkscape="http://www.inkscape.org/namespaces/inkscape"
   width="35"
   height="35"
   viewBox="0 0 9.2604147 9.2604164"
   version="1.1"
   id="svg334"
   sodipodi:docname="whatsapp.svg"
   inkscape:version="0.92.4 5da689c313, 2019-01-14">
  <defs
     id="defs328" />
  <sodipodi:namedview
     id="base"
     pagecolor="#ffffff"
     bordercolor="#666666"
     borderopacity="1.0"
     inkscape:pageopacity="0.0"
     inkscape:pageshadow="2"
     inkscape:zoom="3.959798"
     inkscape:cx="29.70299"
     inkscape:cy="37.966543"
     inkscape:document-units="mm"
     inkscape:current-layer="layer1"
     showgrid="false"
     inkscape:window-width="1366"
     inkscape:window-height="712"
     inkscape:window-x="0"
     inkscape:window-y="28"
     inkscape:window-maximized="1"
     fit-margin-top="0"
     fit-margin-left="0"
     fit-margin-right="0"
     fit-margin-bottom="0"
     units="px" />
  <metadata
     id="metadata331">
    <rdf:RDF>
      <cc:Work
         rdf:about="">
        <dc:format>image/svg+xml</dc:format>
        <dc:type
           rdf:resource="http://purl.org/dc/dcmitype/StillImage" />
        <dc:title></dc:title>
      </cc:Work>
    </rdf:RDF>
  </metadata>
  <g
     inkscape:label="Layer 1"
     inkscape:groupmode="layer"
     id="layer1"
     transform="translate(-57.921111,-14.423636)">
    <path
       inkscape:connector-curvature="0"
       id="path96"
       style="fill:#ffffff;fill-opacity:1;fill-rule:evenodd;stroke:none;stroke-width:0.01147724"
       d="m 62.578142,21.375585 c -0.484683,0 -0.937689,-0.144729 -1.315406,-0.393326 l -0.918867,0.29267 0.295769,-0.884321 c -0.286243,-0.390226 -0.45622,-0.87491 -0.45622,-1.39414 0,-0.07861 0.0031,-0.15104 0.01247,-0.22966 0.119597,-1.205223 1.142215,-2.146128 2.382215,-2.146128 1.258708,0 2.293954,0.966039 2.388413,2.190201 0.0064,0.06289 0.0064,0.125899 0.0064,0.185587 0,1.309209 -1.073007,2.379117 -2.394725,2.379117 z m 1.30588,-1.806288 c -0.0722,-0.03467 -0.412031,-0.204639 -0.475158,-0.229775 -0.06932,-0.01882 -0.113281,-0.03455 -0.160451,0.03776 -0.04419,0.06932 -0.179504,0.223461 -0.220133,0.26742 -0.04109,0.05049 -0.08206,0.0536 -0.147942,0.02204 -0.0754,-0.03455 -0.299097,-0.10685 -0.563302,-0.346039 C 62.106199,19.135 61.96457,18.911539 61.92681,18.845431 c -0.03776,-0.07552 -0.0064,-0.10685 0.02824,-0.147828 0.03466,-0.02835 0.07231,-0.07552 0.107084,-0.1197 0.0094,-0.0092 0.01883,-0.01883 0.02513,-0.03133 0.01895,-0.02835 0.02824,-0.05049 0.04396,-0.08184 0.02513,-0.04717 0.01572,-0.08815 -0.0062,-0.119597 -0.0126,-0.03467 -0.154139,-0.380816 -0.214166,-0.516131 -0.05647,-0.141515 -0.116374,-0.116374 -0.15391,-0.116374 -0.0443,0 -0.08825,-0.0064 -0.135431,-0.0064 -0.05049,0 -0.122689,0.01572 -0.185586,0.08815 -0.06944,0.06921 -0.248712,0.232873 -0.248712,0.578912 0,0.07873 0.01572,0.160567 0.04085,0.232987 0.06611,0.248597 0.223462,0.446809 0.245613,0.48147 0.03466,0.04717 0.481354,0.767828 1.192484,1.044773 0.714343,0.276946 0.714343,0.182488 0.840248,0.173077 0.125912,-0.0095 0.412263,-0.163666 0.47206,-0.330429 0.05659,-0.160453 0.05659,-0.298983 0.03776,-0.330545 -0.01572,-0.02192 -0.06301,-0.04396 -0.132217,-0.0754 z m 1.541966,-0.641922 c -0.04085,-1.529456 -1.299681,-2.753618 -2.847846,-2.753618 -1.529226,0 -2.778752,1.192714 -2.841648,2.700019 -0.0064,0.03776 -0.0064,0.08184 -0.0064,0.122689 0,0.53197 0.151041,1.032263 0.409164,1.460249 l -0.516132,1.516832 1.579727,-0.500408 c 0.409048,0.223462 0.878007,0.349367 1.375202,0.349367 1.573528,0 2.850945,-1.261921 2.850945,-2.82604 0,-0.02503 -0.0031,-0.04407 -0.0031,-0.06909 v 0" />
  </g>
</svg>
